<?xml version="1.0" standalone="no"?>
<!DOCTYPE svg PUBLIC "-//W3C//DTD SVG 20010904//EN"
 "http://www.w3.org/TR/2001/REC-SVG-20010904/DTD/svg10.dtd">
<svg version="1.0" xmlns="http://www.w3.org/2000/svg"
 width="320.000000pt" height="320.000000pt" viewBox="0 0 320.000000 320.000000"
 preserveAspectRatio="xMidYMid meet">
<metadata>
Created by potrace 1.11, written by Peter Selinger 2001-2013
</metadata>
<g transform="translate(0.000000,320.000000) scale(0.100000,-0.100000)"
fill="#000000" stroke="none">
<path d="M715 3193 c-85 -8 -248 -46 -302 -69 -186 -83 -329 -251 -377 -446
-32 -130 -36 -254 -36 -1078 0 -824 4 -948 36 -1078 51 -203 203 -375 405
-454 94 -38 129 -44 129 -23 0 10 7 88 15 174 14 154 36 397 95 1076 17 193
39 445 50 560 26 281 47 514 66 719 24 276 33 252 73 -209 18 -203 41 -464 52
-580 83 -913 158 -1762 159 -1782 0 -2 124 -3 275 -3 l274 0 5 32 c6 32 29
281 96 1038 17 190 39 440 50 555 23 249 54 586 81 889 18 206 31 272 43 215
3 -13 12 -103 20 -199 9 -96 25 -274 36 -395 11 -121 29 -321 40 -445 11 -124
32 -351 45 -505 14 -154 36 -406 50 -560 13 -154 31 -352 40 -439 8 -88 15
-166 15 -174 0 -13 23 -14 178 -8 97 4 222 14 277 24 l100 17 12 96 c7 53 21
199 32 325 23 258 51 564 81 889 11 121 29 317 40 435 11 118 29 314 41 435
11 121 24 276 30 345 6 69 12 135 15 148 10 50 22 5 33 -130 7 -79 21 -237 31
-353 11 -115 33 -365 50 -555 17 -190 41 -469 55 -620 13 -151 27 -321 31
-378 4 -62 11 -99 16 -94 24 24 29 248 25 1088 -3 862 -4 881 -25 969 -70 286
-250 462 -537 526 -99 23 -108 23 -990 24 -490 1 -908 0 -930 -2z"/>
</g>
</svg>
